<?xml version="1.0" standalone="no"?>
<!DOCTYPE svg PUBLIC "-//W3C//DTD SVG 1.1//EN" "http://www.w3.org/Graphics/SVG/1.1/DTD/svg11.dtd" >
<svg xmlns="http://www.w3.org/2000/svg">
<metadata>Generated by IcoMoon</metadata>
<defs>
<font id="icomoon" horiz-adv-x="1024">
<font-face units-per-em="1024" ascent="960" descent="-64" />
<missing-glyph horiz-adv-x="1024" />
<glyph unicode="&#x20;" horiz-adv-x="512" d="" />
<glyph unicode="&#xe900;" d="M112 944h736v-992h-736v992z" />
<glyph unicode="&#xe901;" d="M368 216.64v-104.64c0-8.848 7.152-16 16-16h32c8.848 0 16 7.152 16 16s-7.152 16-16 16h-16v96c0 2.336-0.56 4.528-1.472 6.528-0.8 2.208-1.968 4.288-3.728 6.032l-19.36 19.36 19.824 19.824c3.424 3.424 4.928 7.936 4.736 12.416v95.84h16c8.848 0 16 7.168 16 16 0 8.848-7.152 16-16 16h-32c-8.848 0-16-7.152-16-16v-104.464l-27.264-27.28c-3.36-3.344-4.912-7.776-4.784-12.208-0.128-4.352 1.424-8.784 4.752-12.112l27.296-27.296zM561.472 230.528c-0.912-2-1.472-4.192-1.472-6.528v-96h-16c-8.848 0-16-7.152-16-16s7.152-16 16-16h32c8.848 0 16 7.152 16 16v104.64l27.296 27.296c3.328 3.328 4.864 7.712 4.752 12.112 0.144 4.384-1.424 8.864-4.784 12.208l-27.264 27.28v104.464c0 8.848-7.152 16-16 16h-32c-8.848 0-16-7.152-16-16 0-8.832 7.152-16 16-16h16v-95.808c-0.192-4.464 1.312-9.008 4.736-12.432l19.824-19.808-19.36-19.36c-1.76-1.776-2.912-3.856-3.728-6.064zM896 832h-32v96c0 17.664-14.336 32-32 32h-704c-17.664 0-32-14.336-32-32v-960c0-17.664 14.336-32 32-32h704c17.664 0 32 14.336 32 32v576h32c17.664 0 32 14.336 32 32v224c0 17.664-14.336 32-32 32zM832 832h-384c-17.664 0-32-14.336-32-32v-224c0-17.664 14.336-32 32-32h384v-576h-704v960h704v-96z" />
<glyph unicode="&#xe902;" d="M615.312 662.16c0.64 0 1.28-0.112 1.92-0.352s1.248-0.656 1.824-1.232l10.72-11.28c-4.688-6.144-10.56-10.768-17.632-13.872-7.056-3.12-15.44-4.688-25.088-4.688-8.848 0-16.784 1.504-23.776 4.512-7.024 3.008-12.976 7.168-17.84 12.48-4.896 5.312-8.624 11.6-11.248 18.88-2.608 7.28-3.904 15.184-3.904 23.712 0 8.704 1.488 16.688 4.464 23.968s7.152 13.568 12.528 18.848c5.344 5.28 11.76 9.376 19.216 12.32 7.472 2.944 15.712 4.4 24.736 4.4 4.352 0 8.48-0.384 12.352-1.152 3.856-0.784 7.472-1.84 10.848-3.2 3.344-1.36 6.432-2.992 9.28-4.896 2.816-1.888 5.328-3.984 7.52-6.288l-9.12-12.24c-0.576-0.752-1.28-1.424-2.080-2.032-0.8-0.624-1.92-0.928-3.36-0.928-0.96 0-1.856 0.208-2.72 0.64-0.864 0.416-1.76 0.944-2.72 1.552-0.96 0.624-2.016 1.28-3.168 2-1.136 0.736-2.496 1.392-4.064 2-1.6 0.624-3.424 1.136-5.536 1.568s-4.56 0.64-7.408 0.64c-4.912 0-9.376-0.864-13.44-2.592-4.048-1.728-7.536-4.224-10.432-7.44-2.912-3.232-5.168-7.136-6.8-11.712-1.632-4.592-2.432-9.728-2.432-15.456 0-5.968 0.816-11.264 2.432-15.904s3.84-8.544 6.64-11.712c2.8-3.184 6.064-5.6 9.792-7.248s7.728-2.48 12-2.48c2.448 0 4.704 0.128 6.72 0.352 2.032 0.256 3.904 0.656 5.648 1.248 1.728 0.576 3.392 1.344 4.976 2.288 1.568 0.928 3.152 2.096 4.752 3.472 0.64 0.544 1.344 0.992 2.096 1.328 0.72 0.32 1.488 0.496 2.304 0.496z" />
<glyph unicode="&#xe903;" d="M707.056 724.88c-0.8-1.28-1.632-2.24-2.512-2.88s-2.016-0.96-3.392-0.96c-1.232 0-2.56 0.368-3.968 1.152-1.408 0.768-3.008 1.648-4.8 2.592-1.792 0.976-3.824 1.824-6.128 2.608-2.304 0.768-4.912 1.152-7.824 1.152-5.072 0-8.848-1.072-11.328-3.248-2.48-2.16-3.712-5.072-3.712-8.752 0-2.336 0.736-4.304 2.24-5.84s3.456-2.88 5.872-4c2.432-1.12 5.216-2.144 8.336-3.072s6.304-1.968 9.568-3.12c3.248-1.136 6.432-2.48 9.552-4.032s5.904-3.536 8.336-5.92c2.416-2.4 4.384-5.328 5.888-8.768 1.488-3.44 2.24-7.584 2.24-12.432 0-5.392-0.944-10.416-2.8-15.12-1.872-4.688-4.576-8.784-8.128-12.288-3.552-3.488-7.92-6.24-13.12-8.24-5.184-2-11.088-3.008-17.712-3.008-3.632 0-7.312 0.368-11.072 1.12s-7.392 1.792-10.928 3.152c-3.52 1.36-6.832 2.976-9.904 4.848-3.088 1.856-5.792 3.936-8.096 6.24l8 12.64c0.592 0.976 1.408 1.728 2.48 2.336 1.056 0.576 2.208 0.88 3.44 0.88 1.616 0 3.2-0.512 4.848-1.52 1.632-1.008 3.456-2.144 5.52-3.36 2.064-1.232 4.4-2.352 7.072-3.36s5.808-1.536 9.456-1.536c4.912 0 8.72 1.072 11.44 3.248 2.72 2.16 4.064 5.584 4.064 10.288 0 2.72-0.736 4.928-2.224 6.624-1.504 1.712-3.472 3.12-5.888 4.256s-5.184 2.112-8.288 2.96c-3.088 0.864-6.272 1.792-9.52 2.848s-6.432 2.336-9.536 3.84-5.84 3.52-8.288 6c-2.416 2.48-4.368 5.568-5.872 9.28-1.504 3.696-2.24 8.288-2.24 13.712 0 4.368 0.88 8.64 2.64 12.8 1.744 4.16 4.336 7.856 7.744 11.12 3.424 3.248 7.616 5.84 12.56 7.792 4.976 1.936 10.656 2.928 17.040 2.928 3.584 0 7.040-0.288 10.432-0.848s6.608-1.392 9.648-2.48 5.872-2.384 8.528-3.92c2.624-1.52 5.008-3.232 7.056-5.152l-6.72-12.56z" />
<glyph unicode="&#xe904;" d="M793.776 724.88c-0.8-1.28-1.632-2.24-2.512-2.88s-2.016-0.96-3.392-0.96c-1.232 0-2.56 0.368-3.968 1.152-1.408 0.768-3.008 1.648-4.8 2.592-1.792 0.976-3.824 1.824-6.128 2.608-2.304 0.768-4.912 1.152-7.824 1.152-5.072 0-8.848-1.072-11.328-3.248-2.48-2.16-3.712-5.072-3.712-8.752 0-2.336 0.736-4.304 2.24-5.84s3.456-2.88 5.872-4c2.432-1.12 5.216-2.144 8.336-3.072s6.304-1.968 9.568-3.12c3.248-1.136 6.432-2.48 9.552-4.032s5.904-3.536 8.336-5.92c2.416-2.4 4.384-5.328 5.888-8.768 1.488-3.44 2.24-7.584 2.24-12.432 0-5.392-0.944-10.416-2.8-15.12-1.872-4.688-4.576-8.784-8.128-12.288-3.552-3.488-7.92-6.24-13.12-8.24-5.184-2-11.088-3.008-17.712-3.008-3.632 0-7.312 0.368-11.072 1.12s-7.392 1.792-10.928 3.152c-3.52 1.36-6.832 2.976-9.904 4.848-3.088 1.856-5.792 3.936-8.096 6.24l8 12.64c0.592 0.976 1.408 1.728 2.48 2.336 1.056 0.576 2.208 0.88 3.44 0.88 1.616 0 3.2-0.512 4.848-1.52 1.632-1.008 3.456-2.144 5.52-3.36 2.064-1.232 4.4-2.352 7.072-3.36s5.808-1.536 9.456-1.536c4.912 0 8.72 1.072 11.44 3.248 2.72 2.16 4.064 5.584 4.064 10.288 0 2.72-0.736 4.928-2.224 6.624-1.504 1.712-3.472 3.12-5.888 4.256s-5.184 2.112-8.288 2.96c-3.088 0.864-6.272 1.792-9.52 2.848s-6.432 2.336-9.536 3.84-5.84 3.52-8.288 6c-2.416 2.48-4.368 5.568-5.872 9.28-1.504 3.696-2.24 8.288-2.24 13.712 0 4.368 0.88 8.64 2.64 12.8 1.744 4.16 4.336 7.856 7.744 11.12 3.424 3.248 7.616 5.84 12.56 7.792 4.976 1.936 10.656 2.928 17.040 2.928 3.584 0 7.040-0.288 10.432-0.848s6.608-1.392 9.648-2.48 5.872-2.384 8.528-3.92c2.624-1.52 5.008-3.232 7.056-5.152l-6.72-12.56z" />
<glyph unicode="&#xe905;" d="M112 944h736v-992h-736v992z" />
<glyph unicode="&#xe906;" d="M704 416h-448v-32h448v32zM704 320h-448v-32h448v32zM704 224h-448v-32h448v32zM896 832h-32v96c0 17.664-14.336 32-32 32h-704c-17.664 0-32-14.336-32-32v-960c0-17.664 14.336-32 32-32h704c17.664 0 32 14.336 32 32v576h32c17.664 0 32 14.336 32 32v224c0 17.664-14.336 32-32 32zM832 832h-384c-17.664 0-32-14.336-32-32v-224c0-17.664 14.336-32 32-32h384v-576h-704v960h704v-96zM496 128h-240v-32h240v32z" />
<glyph unicode="&#xe907;" d="M606.112 690.32c0-8.416-1.456-16.192-4.352-23.312s-7.008-13.28-12.288-18.48-11.648-9.248-19.072-12.16-15.712-4.368-24.768-4.368h-45.28v116.56h45.28c9.056 0 17.328-1.472 24.768-4.4s13.792-6.992 19.072-12.16 9.376-11.312 12.288-18.432 4.352-14.88 4.352-23.248zM578.432 690.32c0 5.76-0.752 10.976-2.256 15.616s-3.648 8.576-6.432 11.792c-2.8 3.232-6.224 5.696-10.288 7.44s-8.656 2.608-13.84 2.608h-18.080v-74.976h18.080c5.184 0 9.776 0.88 13.84 2.608 4.064 1.712 7.488 4.208 10.288 7.44 2.8 3.216 4.944 7.152 6.432 11.792s2.256 9.856 2.256 15.68z" />
<glyph unicode="&#xe908;" d="M734.112 690.32c0-8.416-1.456-16.272-4.352-23.52s-7.008-13.568-12.288-18.928-11.648-9.568-19.072-12.592c-7.456-3.040-15.696-4.56-24.768-4.56s-17.328 1.52-24.8 4.56c-7.472 3.024-13.856 7.232-19.152 12.592-5.312 5.36-9.424 11.664-12.336 18.928s-4.336 15.088-4.336 23.52c0 8.432 1.44 16.288 4.336 23.536s7.008 13.552 12.336 18.88c5.296 5.328 11.68 9.52 19.152 12.56 7.472 3.024 15.728 4.56 24.8 4.56s17.312-1.536 24.768-4.608c7.44-3.056 13.792-7.264 19.072-12.592s9.376-11.632 12.288-18.88c2.896-7.28 4.352-15.088 4.352-23.456zM706.432 690.32c0 5.76-0.752 10.96-2.256 15.568-1.504 4.624-3.648 8.528-6.432 11.712-2.816 3.2-6.224 5.664-10.288 7.36-4.064 1.712-8.656 2.56-13.84 2.56-5.216 0-9.872-0.848-13.952-2.56-4.080-1.696-7.52-4.16-10.336-7.36-2.8-3.184-4.944-7.088-6.432-11.712-1.504-4.608-2.24-9.792-2.24-15.568 0-5.808 0.736-11.008 2.24-15.632s3.648-8.528 6.432-11.728c2.816-3.184 6.256-5.648 10.336-7.312 4.080-1.68 8.736-2.512 13.952-2.512 5.184 0 9.776 0.832 13.84 2.512 4.064 1.664 7.472 4.128 10.288 7.312 2.8 3.2 4.944 7.104 6.432 11.728 1.504 4.608 2.256 9.808 2.256 15.632z" />
<glyph unicode="&#xe909;" d="M825.392 662.16c0.64 0 1.28-0.112 1.92-0.352 0.624-0.24 1.248-0.656 1.84-1.232l10.72-11.28c-4.704-6.144-10.576-10.768-17.664-13.872-7.056-3.12-15.408-4.688-25.056-4.688-8.864 0-16.8 1.504-23.808 4.512s-12.96 7.168-17.84 12.48c-4.88 5.312-8.624 11.6-11.232 18.88s-3.92 15.184-3.92 23.712c0 8.704 1.504 16.688 4.48 23.968s7.168 13.552 12.512 18.832c5.376 5.28 11.776 9.376 19.248 12.32s15.696 4.4 24.72 4.4c4.368 0 8.496-0.384 12.352-1.152 3.856-0.784 7.488-1.84 10.832-3.2 3.376-1.36 6.464-2.992 9.28-4.896 2.848-1.888 5.344-3.984 7.536-6.288l-9.12-12.24c-0.592-0.752-1.28-1.424-2.080-2.032-0.8-0.624-1.92-0.928-3.36-0.928-0.976 0-1.872 0.208-2.72 0.64-0.864 0.416-1.76 0.944-2.72 1.552-0.976 0.624-2.016 1.28-3.152 2-1.152 0.736-2.512 1.392-4.096 2-1.568 0.624-3.408 1.136-5.52 1.568s-4.576 0.64-7.392 0.64c-4.912 0-9.408-0.864-13.44-2.592-4.064-1.728-7.552-4.224-10.448-7.44-2.912-3.232-5.168-7.136-6.8-11.712-1.632-4.592-2.432-9.728-2.432-15.456 0-5.968 0.816-11.264 2.432-15.904s3.84-8.544 6.64-11.712c2.8-3.184 6.064-5.6 9.792-7.248s7.728-2.48 12-2.48c2.448 0 4.688 0.128 6.72 0.352 2.032 0.256 3.904 0.656 5.648 1.248 1.728 0.576 3.392 1.344 4.96 2.288 1.6 0.928 3.168 2.096 4.784 3.472 0.624 0.544 1.312 0.992 2.064 1.328s1.52 0.512 2.32 0.512z" />
<glyph unicode="&#xe90a;" d="M112 944h736v-992h-736v992z" />
<glyph unicode="&#xe90b;" d="M392.176 113.92c8.032-4.528 18.208-2.032 22.704 5.616l159.328 256.496c4.496 7.664 1.664 17.504-6.368 22.048s-18.224 2.032-22.72-5.616l-159.328-256.496c-4.512-7.632-1.648-17.504 6.384-22.048zM596.576 164.592c6.224-6.224 16.272-6.224 22.48 0l79.344 79.344c0.336 0.288 0.752 0.368 1.040 0.704 3.168 3.168 4.672 7.36 4.592 11.52 0.016 4.096-1.552 8.16-4.656 11.264-0.224 0.24-0.512 0.304-0.752 0.496l-79.552 79.552c-6.224 6.224-16.288 6.224-22.464 0-6.224-6.208-6.224-16.272 0-22.464l68.944-68.944-69.008-69.008c-6.176-6.176-6.176-16.256 0.032-22.464zM261.552 243.968l79.376-79.376c6.208-6.224 16.272-6.224 22.464 0 6.224 6.208 6.224 16.288 0 22.464l-68.992 69.008 68.944 68.944c6.208 6.224 6.208 16.288 0 22.464-6.208 6.224-16.272 6.224-22.464 0l-79.52-79.536c-0.24-0.224-0.56-0.288-0.784-0.512-3.104-3.104-4.656-7.2-4.656-11.28-0.064-4.16 1.424-8.336 4.608-11.504 0.304-0.304 0.704-0.384 1.024-0.672zM896 832h-32v96c0 17.664-14.336 32-32 32h-704c-17.664 0-32-14.336-32-32v-960c0-17.664 14.336-32 32-32h704c17.664 0 32 14.336 32 32v576h32c17.664 0 32 14.336 32 32v224c0 17.664-14.336 32-32 32zM832 832h-480c-17.664 0-32-14.336-32-32v-224c0-17.664 14.336-32 32-32h480v-576h-704v960h704v-96z" />
<glyph unicode="&#xe90c;" d="M505.008 632h-27.2v49.28h-47.36v-49.28h-27.2v116.56h27.2v-48.72h47.36v48.72h27.2v-116.56z" />
<glyph unicode="&#xe90d;" d="M608.848 748.56v-21.44h-32.816v-95.12h-27.024v95.12h-32.8v21.44h92.64z" />
<glyph unicode="&#xe90e;" d="M682.72 678.976c0.992-2.192 1.936-4.432 2.848-6.736 0.912 2.352 1.856 4.64 2.88 6.864 1.008 2.208 2.064 4.352 3.12 6.432l29.904 58.944c0.528 1.008 1.088 1.808 1.664 2.368 0.56 0.544 1.184 0.976 1.872 1.232s1.472 0.4 2.352 0.4c0.88 0 1.904 0 3.072 0h20.64v-116.48h-23.84v67.040c0 3.248 0.176 6.768 0.48 10.544l-30.88-59.904c-0.976-1.872-2.256-3.28-3.872-4.256-1.648-0.96-3.504-1.44-5.568-1.44h-3.68c-2.080 0-3.936 0.48-5.568 1.44-1.632 0.976-2.928 2.368-3.872 4.256l-31.040 60c0.224-1.872 0.368-3.728 0.48-5.568 0.096-1.84 0.16-3.536 0.16-5.072v-67.040h-23.84v116.48h20.656c1.152 0 2.192 0 3.056 0 0.896 0 1.664-0.144 2.368-0.4 0.688-0.272 1.312-0.688 1.872-1.232 0.56-0.56 1.088-1.36 1.648-2.368l30-59.168c1.072-2.048 2.080-4.16 3.088-6.336z" />
<glyph unicode="&#xe90f;" d="M797.312 653.6h43.216v-21.6h-70.256v116.56h27.024v-94.96z" />
<glyph unicode="&#xe910;" d="M112 944h736v-992h-736v992z" />
<glyph unicode="&#xe911;" d="M256 432h448v-352h-448v352z" />
<glyph unicode="&#xe912;" d="M592 288l-80-80-112 112-144-144v-96h448v96z" />
<glyph unicode="&#xe913;" d="M272 64h416c17.664 0 32 14.336 32 32v79.472c0 0.256 0 0.464 0 0.72v239.808c0 17.664-14.336 32-32 32h-416c-17.664 0-32-14.336-32-32v-239.776c0-0.272 0-0.496 0-0.768v-79.456c0-17.664 14.336-32 32-32zM272 416h416v-201.536l-83.904 83.904c-0.288 0.336-0.368 0.752-0.688 1.024-3.12 3.136-7.28 4.672-11.408 4.624-4.128 0.048-8.288-1.488-11.424-4.624-0.336-0.32-0.416-0.736-0.704-1.056l-67.872-67.872-99.92 99.904c-0.272 0.336-0.368 0.752-0.672 1.024-3.152 3.136-7.28 4.672-11.408 4.624-4.128 0.048-8.272-1.488-11.424-4.624-0.32-0.32-0.416-0.736-0.704-1.056l-115.872-115.872v201.536zM272 169.536l128 128 99.92-99.904c0.288-0.336 0.384-0.72 0.688-1.008s0.704-0.384 1.024-0.688l31.312-31.312c6.224-6.24 16.288-6.24 22.464 0 6.224 6.208 6.224 16.272 0 22.448l-20.944 20.928 57.536 57.536 96-96v-73.536h-416v73.536zM896 832h-32v96c0 17.664-14.336 32-32 32h-704c-17.664 0-32-14.336-32-32v-960c0-17.664 14.336-32 32-32h704c17.664 0 32 14.336 32 32v576h32c17.664 0 32 14.336 32 32v224c0 17.664-14.336 32-32 32zM832 832h-384c-17.664 0-32-14.336-32-32v-224c0-17.664 14.336-32 32-32h384v-576h-704v960h704v-96z" />
<glyph unicode="&#xe914;" d="M583.488 674.24c0-6.496-0.832-12.416-2.448-17.744-1.632-5.344-4.064-9.904-7.344-13.712s-7.408-6.784-12.368-8.896c-4.96-2.096-10.784-3.152-17.504-3.152-3.056 0-6.064 0.16-9.008 0.48-2.976 0.32-6.064 0.848-9.248 1.6l1.44 15.76c0.112 1.392 0.656 2.496 1.648 3.36 0.992 0.848 2.352 1.28 4.112 1.28 0.912 0 2.032-0.16 3.376-0.432 1.328-0.304 2.944-0.448 4.8-0.448 2.608 0 4.896 0.368 6.832 1.088 1.968 0.72 3.568 1.904 4.848 3.6s2.256 3.872 2.896 6.592 0.96 6.096 0.96 10.096v74.88h27.040v-74.352z" />
<glyph unicode="&#xe915;" d="M629.712 670.96v-38.96h-27.024v116.56h41.104c8.208 0 15.264-0.976 21.168-2.928 5.872-1.952 10.736-4.624 14.544-8.048 3.808-3.408 6.624-7.44 8.448-12.080 1.808-4.64 2.72-9.664 2.72-15.024 0-5.808-0.944-11.152-2.816-16-1.872-4.864-4.72-9.008-8.56-12.48s-8.704-6.176-14.592-8.128c-5.888-1.936-12.88-2.928-20.928-2.928h-14.064zM629.712 691.36h14.080c7.040 0 12.112 1.68 15.2 5.040s4.64 8.048 4.64 14.080c0 2.656-0.4 5.088-1.2 7.28s-2.016 4.064-3.648 5.648c-1.632 1.568-3.664 2.784-6.16 3.648-2.48 0.848-5.424 1.264-8.848 1.264h-14.080v-36.96z" />
<glyph unicode="&#xe916;" d="M759.632 651.52c3.744 0 7.056 0.336 9.936 0.976s5.6 1.488 8.16 2.56v17.664h-11.536c-1.68 0-3.024 0.448-4 1.36-0.96 0.912-1.44 2.048-1.44 3.44v14.896h41.44v-49.216c-2.976-2.192-6.096-4.080-9.312-5.648-3.216-1.584-6.656-2.88-10.32-3.872-3.664-1.008-7.568-1.76-11.68-2.256s-8.56-0.72-13.312-0.72c-8.528 0-16.432 1.504-23.68 4.512s-13.536 7.168-18.848 12.48-9.472 11.6-12.464 18.88c-3.024 7.28-4.528 15.184-4.528 23.712 0 8.704 1.44 16.688 4.336 23.968 2.88 7.28 7.008 13.568 12.352 18.848s11.84 9.376 19.44 12.32 16.096 4.4 25.472 4.4c4.88 0 9.424-0.4 13.68-1.2 4.288-0.8 8.208-1.888 11.808-3.28s6.88-3.040 9.872-4.96c2.992-1.92 5.664-4 8-6.256l-7.84-11.92c-0.752-1.104-1.648-2-2.688-2.64-1.024-0.64-2.16-0.96-3.392-0.96-1.616 0-3.264 0.528-4.96 1.6-2.144 1.28-4.16 2.384-6.048 3.328s-3.824 1.68-5.792 2.288c-1.968 0.576-4.064 1.008-6.256 1.28s-4.624 0.384-7.344 0.384c-5.072 0-9.648-0.896-13.68-2.672-4.064-1.792-7.504-4.32-10.368-7.568-2.848-3.248-5.024-7.152-6.592-11.712-1.536-4.56-2.32-9.648-2.32-15.248 0-6.192 0.848-11.664 2.56-16.464 1.696-4.8 4.064-8.864 7.072-12.16 3.008-3.312 6.576-5.824 10.72-7.568s8.64-2.576 13.552-2.576z" />
<glyph unicode="&#xe917;" d="M112 944h736v-992h-736v992z" />
<glyph unicode="&#xe918;" d="M672 256c0-97.202-78.798-176-176-176s-176 78.798-176 176c0 97.202 78.798 176 176 176s176-78.798 176-176z" />
<glyph unicode="&#xe919;" d="M896 832h-32v96c0 17.664-14.336 32-32 32h-704c-17.664 0-32-14.336-32-32v-960c0-17.664 14.336-32 32-32h704c17.664 0 32 14.336 32 32v576h32c17.664 0 32 14.336 32 32v224c0 17.664-14.336 32-32 32zM832 832h-384c-17.664 0-32-14.336-32-32v-224c0-17.664 14.336-32 32-32h384v-576h-704v960h704v-96zM496 64c106.032 0 192 85.968 192 192 0 106.048-85.968 192-192 192s-192-85.952-192-192c0-106.032 85.968-192 192-192zM496 416c88.336 0 160-71.664 160-160s-71.664-160-160-160c-88.352 0-160 71.664-160 160s71.648 160 160 160zM449.168 202.176c0.080-0.208 0.144-0.384 0.224-0.608 0.32-0.736 0.368-1.536 0.816-2.24 0.64-1.040 1.616-1.76 2.448-2.608 0.032-0.016 0.032-0.032 0.064-0.048 1.408-1.392 3.008-2.448 4.816-3.248 0.16-0.064 0.304-0.144 0.448-0.208 1.872-0.752 3.824-1.136 5.872-1.184 0.048 0 0.096-0.032 0.144-0.032 0.032 0 0.048 0.016 0.064 0.016 2.832-0.032 5.664 0.352 8.288 1.76l79.52 50.24c1.296 0.704 1.904 1.28 2.288 1.824 2.912 2.464 4.88 6.032 4.88 10.16s-1.968 7.68-4.88 10.16c-0.336 0.544-0.992 1.12-2.288 1.824l-79.52 50.24c-2.624 1.408-5.456 1.792-8.288 1.76-0.016 0-0.032 0.016-0.064 0.016-0.048 0-0.096-0.032-0.144-0.032-2.048-0.048-4-0.432-5.872-1.184-0.16-0.064-0.304-0.128-0.448-0.208-1.808-0.8-3.408-1.856-4.816-3.248-0.032-0.016-0.032-0.032-0.064-0.048-0.848-0.848-1.808-1.568-2.448-2.608-0.432-0.704-0.496-1.504-0.816-2.24-0.080-0.224-0.144-0.4-0.224-0.608-0.528-1.488-0.88-2.96-0.896-4.464-0.032-0.448-0.272-0.896-0.272-1.36v-96c0-0.464 0.24-0.912 0.288-1.36 0.016-1.52 0.352-2.976 0.88-4.464z" />
<glyph unicode="&#xe91a;" d="M540.88 678.976c0.992-2.192 1.936-4.432 2.848-6.736 0.912 2.352 1.856 4.64 2.88 6.864 1.008 2.208 2.064 4.352 3.12 6.432l29.904 58.944c0.528 1.008 1.088 1.808 1.664 2.368 0.56 0.544 1.184 0.976 1.872 1.232s1.472 0.4 2.352 0.4c0.88 0 1.904 0 3.072 0h20.64v-116.48h-23.84v67.040c0 3.248 0.176 6.768 0.48 10.544l-30.88-59.904c-0.976-1.872-2.256-3.28-3.872-4.256-1.648-0.96-3.504-1.44-5.568-1.44h-3.68c-2.080 0-3.936 0.48-5.568 1.44-1.632 0.976-2.928 2.368-3.872 4.256l-31.040 60c0.224-1.872 0.368-3.728 0.48-5.568 0.096-1.84 0.16-3.536 0.16-5.072v-67.040h-23.84v116.48h20.64c1.168 0 2.192 0 3.072 0s1.664-0.144 2.352-0.4 1.328-0.688 1.888-1.232c0.56-0.56 1.104-1.36 1.648-2.368l30-59.168c1.072-2.048 2.080-4.16 3.088-6.336z" />
<glyph unicode="&#xe91b;" d="M743.472 690.32c0-8.416-1.44-16.272-4.336-23.52s-7.008-13.568-12.288-18.928-11.664-9.568-19.088-12.592c-7.44-3.040-15.68-4.56-24.752-4.56s-17.344 1.52-24.816 4.56c-7.472 3.024-13.84 7.232-19.152 12.592s-9.408 11.664-12.32 18.928-4.352 15.088-4.352 23.52c0 8.432 1.456 16.288 4.352 23.536s7.008 13.552 12.32 18.88 11.68 9.52 19.152 12.56c7.472 3.024 15.744 4.56 24.816 4.56s17.312-1.536 24.752-4.608c7.44-3.056 13.808-7.264 19.088-12.592s9.376-11.632 12.288-18.88c2.896-7.28 4.336-15.088 4.336-23.456zM715.792 690.32c0 5.76-0.752 10.96-2.24 15.568-1.504 4.624-3.664 8.528-6.432 11.712-2.816 3.2-6.24 5.664-10.288 7.36-4.064 1.712-8.672 2.56-13.84 2.56-5.232 0-9.872-0.848-13.968-2.56-4.080-1.696-7.52-4.16-10.32-7.36-2.816-3.184-4.96-7.088-6.432-11.712-1.504-4.608-2.256-9.792-2.256-15.568 0-5.808 0.752-11.008 2.256-15.632 1.488-4.624 3.632-8.528 6.432-11.728 2.8-3.184 6.24-5.648 10.32-7.312 4.096-1.68 8.736-2.512 13.968-2.512 5.168 0 9.776 0.832 13.84 2.512 4.048 1.664 7.472 4.128 10.288 7.312 2.784 3.2 4.944 7.104 6.432 11.728 1.488 4.608 2.24 9.808 2.24 15.632z" />
<glyph unicode="&#xe91c;" d="M742.032 748.56h21.744c2.352 0 4.288-0.528 5.776-1.616 1.488-1.056 2.544-2.464 3.184-4.24l22.56-62.4c1.008-2.72 2.032-5.664 3.072-8.88s2.016-6.56 2.928-10.080c0.752 3.52 1.616 6.88 2.592 10.080 1.008 3.2 1.968 6.16 2.928 8.88l22.4 62.4c0.528 1.504 1.584 2.848 3.104 4.048 1.568 1.184 3.44 1.792 5.68 1.792h21.92l-46.72-116.56h-24.48l-46.688 116.576z" />
<glyph unicode="&#xe91d;" d="M112 944h736v-992h-736v992z" />
<glyph unicode="&#xe91e;" d="M343.552 141.536c-26.16-6.56-43.568-25.088-38.896-41.392 4.656-16.32 29.664-24.224 55.792-17.664 26.16 6.56 43.568 25.088 38.896 41.424-4.672 16.272-29.664 24.176-55.792 17.632zM655.344 187.872c-4.672 16.304-29.664 24.208-55.776 17.664-26.176-6.56-43.584-25.088-38.912-41.392 4.656-16.32 29.664-24.224 55.776-17.664 26.176 6.544 43.584 25.088 38.912 41.392zM656 432l-256-64v-64l256 64v64z" />
<glyph unicode="&#xe91f;" d="M364.512 67.024c32.096 8.288 53.312 32.56 50.48 55.968 0.528 1.6 1.008 3.232 1.008 5.008v164l224 56v-127.92c-13.008 4.272-28.592 4.992-44.512 0.896-34.416-8.88-56.704-36.208-49.792-61.008 6.944-24.832 40.416-37.76 74.848-28.896 32.096 8.272 53.312 32.56 50.464 55.936 0.528 1.584 0.992 3.216 0.992 4.992v240c0 8.848-7.152 16-16 16-2.512 0-4.832-0.704-6.944-1.728l-249.056-62.272c-8.848 0-16-7.152-16-16v-211.92c-12.992 4.272-28.592 4.992-44.512 0.896-34.416-8.88-56.704-36.208-49.792-61.008 6.912-24.88 40.416-37.792 74.816-28.944zM612.288 161.872c-17.632-4.192-33.808-1.248-36.192 6.528-2.336 7.808 10.016 17.552 27.632 21.696 17.648 4.208 33.84 1.248 36.208-6.544 2.352-7.808-10.048-17.504-27.648-21.68zM416 356l224 56v-32l-224-56v32zM347.712 126.128c17.632 4.192 33.824 1.248 36.192-6.528 2.352-7.808-10.016-17.552-27.632-21.696-17.632-4.208-33.824-1.248-36.192 6.544-2.352 7.808 10.032 17.504 27.632 21.68zM896 832h-32v96c0 17.664-14.336 32-32 32h-704c-17.664 0-32-14.336-32-32v-960c0-17.664 14.336-32 32-32h704c17.664 0 32 14.336 32 32v576h32c17.664 0 32 14.336 32 32v224c0 17.664-14.336 32-32 32zM832 832h-384c-17.664 0-32-14.336-32-32v-224c0-17.664 14.336-32 32-32h384v-576h-704v960h704v-96z" />
<glyph unicode="&#xe920;" d="M566.384 678.976c0.992-2.192 1.92-4.432 2.832-6.736 0.912 2.352 1.872 4.64 2.896 6.864 1.008 2.208 2.048 4.352 3.104 6.432l29.936 58.944c0.528 1.008 1.056 1.808 1.632 2.368 0.56 0.544 1.184 0.976 1.888 1.232 0.688 0.272 1.488 0.4 2.352 0.4s1.904 0 3.072 0h20.64v-116.48h-23.84v67.040c0 3.248 0.16 6.768 0.48 10.544l-30.896-59.904c-0.96-1.872-2.256-3.28-3.872-4.256-1.632-0.96-3.472-1.44-5.568-1.44h-3.664c-2.080 0-3.936 0.48-5.568 1.44-1.632 0.976-2.928 2.368-3.872 4.256l-31.040 60c0.224-1.872 0.368-3.728 0.48-5.568s0.16-3.536 0.16-5.072v-67.040h-23.84v116.48h20.64c1.184 0 2.208 0 3.088 0s1.664-0.144 2.336-0.4c0.704-0.272 1.328-0.688 1.888-1.232 0.544-0.56 1.104-1.36 1.648-2.368l30-59.168c1.072-2.048 2.112-4.16 3.088-6.336z" />
<glyph unicode="&#xe921;" d="M681.008 670.96v-38.96h-27.040v116.56h41.104c8.224 0 15.28-0.976 21.168-2.928s10.736-4.624 14.544-8.048c3.808-3.408 6.624-7.44 8.448-12.080 1.808-4.64 2.72-9.664 2.72-15.024 0-5.808-0.944-11.152-2.8-16-1.872-4.864-4.72-9.008-8.56-12.48s-8.72-6.176-14.592-8.128c-5.904-1.936-12.88-2.928-20.944-2.928h-14.048zM681.008 691.36h14.064c7.040 0 12.128 1.68 15.216 5.040s4.624 8.048 4.624 14.080c0 2.656-0.4 5.088-1.184 7.28-0.816 2.192-2.032 4.064-3.664 5.648-1.632 1.568-3.664 2.784-6.16 3.648-2.464 0.848-5.424 1.264-8.848 1.264h-14.064v-36.96z" />
<glyph unicode="&#xe922;" d="M796.832 749.84c5.76 0 10.896-0.816 15.36-2.432 4.48-1.648 8.272-3.824 11.36-6.608 3.088-2.768 5.456-5.984 7.040-9.648s2.4-7.504 2.4-11.568c0-3.664-0.368-6.912-1.12-9.712s-1.856-5.216-3.328-7.28c-1.456-2.048-3.264-3.792-5.44-5.232-2.16-1.44-4.624-2.64-7.392-3.6 12.912-4.48 19.344-13.264 19.344-26.336 0-6.192-1.104-11.584-3.344-16.16-2.256-4.592-5.248-8.4-9.008-11.44s-8.128-5.328-13.088-6.848c-4.96-1.52-10.128-2.288-15.52-2.288-5.552 0-10.48 0.592-14.8 1.792s-8.16 3.072-11.536 5.616c-3.344 2.528-6.304 5.76-8.832 9.712-2.544 3.936-4.736 8.64-6.608 14.080l11.040 4.48c0.96 0.416 1.904 0.72 2.832 0.88 0.944 0.16 1.872 0.24 2.784 0.24 1.68 0 3.216-0.336 4.592-1.008 1.36-0.656 2.368-1.648 3.072-2.928 2.384-4.416 4.96-7.648 7.648-9.648s5.84-3.008 9.472-3.008c2.784 0 5.184 0.464 7.248 1.408s3.744 2.144 5.12 3.6c1.344 1.472 2.368 3.136 3.056 5.008 0.704 1.872 1.056 3.76 1.056 5.68 0 2.496-0.192 4.768-0.528 6.768s-1.312 3.712-2.928 5.152-4.016 2.544-7.232 3.312c-3.232 0.784-7.712 1.168-13.488 1.168v17.168c4.864 0 8.768 0.368 11.76 1.12s5.28 1.76 6.912 3.072 2.72 2.896 3.248 4.768c0.528 1.856 0.8 3.92 0.8 6.16 0 4.576-1.104 8.128-3.328 10.592-2.208 2.48-5.584 3.712-10.112 3.712-1.856 0-3.584-0.272-5.104-0.8-1.568-0.528-2.944-1.248-4.176-2.16s-2.288-1.968-3.152-3.2c-0.896-1.216-1.6-2.56-2.128-4-0.864-2.384-1.92-4.128-3.232-5.2-1.312-1.056-3.088-1.6-5.312-1.6-0.544 0-1.12 0.032-1.728 0.080s-1.232 0.144-1.872 0.24l-13.12 2.336c0.864 5.808 2.48 10.88 4.928 15.2 2.432 4.32 5.44 7.92 9.024 10.8 3.616 2.88 7.712 5.024 12.368 6.432s9.664 2.128 14.992 2.128z" />
<glyph unicode="&#xe923;" d="M112 944h736v-992h-736v992z" />
<glyph unicode="&#xe924;" d="M896 832h-32v96c0 17.664-14.336 32-32 32h-704c-17.664 0-32-14.336-32-32v-960c0-17.664 14.336-32 32-32h704c17.664 0 32 14.336 32 32v576h32c17.664 0 32 14.336 32 32v224c0 17.664-14.336 32-32 32zM832 832h-384c-17.664 0-32-14.336-32-32v-224c0-17.664 14.336-32 32-32h384v-576h-704v960h704v-96zM367.056 95.952c13.952 21.584 23.648 50.144 25.584 62.656 49.568 22.896 105.744 31.392 151.664 34.24 10.624-9.36 25.28-23.584 38.816-34.656 34.32-28.048 59.056-37.008 85.776-23.008 9.968 5.2 16.48 16.768 18.096 30.176 0.128 0.368 0.336 0.64 0.416 1.024l0.24 1.28c0 18.16-11.248 46.592-48.752 52.72-30.688 5.008-71.584 3.76-88.432 2.272-49.168 37.52-90.192 73.2-115.936 97.424 2.016 19.6 4.64 56.368-1.536 75.952-15.056 47.728-72.4 49.328-80.368-1.696-5.888-37.68 36.192-74.624 48.176-84.288-8.192-36.496-23.6-97.232-32.64-132.368-10.608-4.72-24.4-11.104-36.608-17.792-24.368-13.36-43.712-41.264-43.264-59.664 1.312-53.568 55.504-40.256 78.768-4.272zM590.096 192.368c21.008 0 35.824 0.272 36.592 0.208 4.848-0.176 19.168-2.592 25.776-10.336 2.56-3.024 3.584-5.184 3.088-9.904-3.184-11.728-8.352-12.336-13.984-12.336-6.528 0-15.344 3.712-16.8 4.368-16.384 10.256-18.16 13.408-35.584 28.336 0.144 0.032 0.768-0.336 0.912-0.336zM427.712 287.856l81.504-69.712c-15.632-1.856-37.68-4.144-58.24-9.072-18.544-4.416-33.904-10.336-45.92-14.784l22.656 93.568zM400.288 353.568c-18.112 20.096-17.824 34.544-16.864 37.904 1.6 5.632 3.808 8.752 7.872 8.752 6.624 0 8.832-4.72 10.304-6.864 3.696-5.456 6.752-19.552 5.248-46.448-4.288 4.256-6.56 6.656-6.56 6.656zM323.472 112.944c9.856 15.216 18.688 21.536 35.776 30.816-16.656-43.824-32.368-47.648-38.672-47.824-0.16 0.144-0.24 0.304-0.32 0.416-1.616 3.184 0.336 10.912 3.216 16.592z" />
<glyph unicode="&#xe925;" d="M548.336 670.96v-38.96h-27.024v116.56h41.104c8.208 0 15.264-0.976 21.168-2.928 5.872-1.952 10.736-4.624 14.544-8.048 3.808-3.408 6.624-7.44 8.448-12.080 1.808-4.64 2.72-9.664 2.72-15.024 0-5.808-0.944-11.152-2.816-16-1.872-4.864-4.72-9.008-8.56-12.48s-8.704-6.176-14.592-8.128c-5.888-1.936-12.88-2.928-20.928-2.928h-14.064zM548.336 691.36h14.080c7.040 0 12.112 1.68 15.2 5.040s4.64 8.048 4.64 14.080c0 2.656-0.4 5.088-1.2 7.28s-2.016 4.064-3.648 5.648c-1.632 1.568-3.664 2.784-6.16 3.648-2.48 0.848-5.424 1.264-8.848 1.264h-14.080v-36.96z" />
<glyph unicode="&#xe926;" d="M729.136 690.32c0-8.416-1.456-16.192-4.352-23.312s-7.008-13.28-12.288-18.48-11.648-9.248-19.072-12.16-15.712-4.368-24.768-4.368h-45.28v116.56h45.28c9.056 0 17.328-1.472 24.768-4.4s13.792-6.992 19.072-12.16 9.376-11.312 12.288-18.432 4.352-14.88 4.352-23.248zM701.472 690.32c0 5.76-0.752 10.976-2.256 15.616s-3.648 8.576-6.432 11.792c-2.8 3.232-6.224 5.696-10.288 7.44s-8.656 2.608-13.84 2.608h-18.080v-74.976h18.080c5.184 0 9.776 0.88 13.84 2.608 4.064 1.712 7.488 4.208 10.288 7.44 2.8 3.216 4.944 7.152 6.432 11.792s2.256 9.856 2.256 15.68z" />
<glyph unicode="&#xe927;" d="M817.136 748.56v-20.8h-47.84v-29.536h39.84v-20.88h-39.84v-45.344h-27.2v116.56h75.040z" />
<glyph unicode="&#xe928;" d="M112 944h736v-992h-736v992z" />
<glyph unicode="&#xe929;" d="M352 64h64v64h-64v-64zM352 192h-64v-64h64v64zM288 320v-64h64v64h-64zM288 448v-64h64v64h-64zM608 448h-64v-64h64v64zM672 320v64h-64v-64h64zM480 64h64v64h-64v-64zM672 192v64h-64v-64h64zM672 64v64h-64v-64h64zM544 128h64v64h-64v-64zM416 192v-64h64v64h-64zM480 448h-64v-64h64v64zM544 320v64h-64v-64h64zM544 256h64v64h-64v-64zM480 192h64v64h-64v-64zM416 256h-64v-64h64v64zM416 384h-64v-64h64v64zM480 320h-64v-64h64v64zM896 832h-32v96c0 17.664-14.336 32-32 32h-704c-17.664 0-32-14.336-32-32v-960c0-17.664 14.336-32 32-32h704c17.664 0 32 14.336 32 32v576h32c17.664 0 32 14.336 32 32v224c0 17.664-14.336 32-32 32zM832 832h-384c-17.664 0-32-14.336-32-32v-224c0-17.664 14.336-32 32-32h384v-576h-704v960h704v-96z" />
<glyph unicode="&#xe92a;" d="M534.832 670.96v-38.96h-27.040v116.56h41.12c8.224 0 15.264-0.976 21.152-2.928 5.904-1.952 10.752-4.624 14.56-8.048 3.808-3.408 6.624-7.44 8.432-12.080s2.72-9.664 2.72-15.024c0-5.808-0.944-11.152-2.8-16-1.856-4.864-4.72-9.008-8.544-12.48-3.84-3.472-8.72-6.176-14.608-8.128-5.888-1.936-12.864-2.928-20.928-2.928h-14.064zM534.832 691.36h14.080c7.024 0 12.112 1.68 15.2 5.040s4.64 8.048 4.64 14.080c0 2.656-0.4 5.088-1.2 7.28s-2.016 4.064-3.648 5.648c-1.632 1.568-3.68 2.784-6.16 3.648-2.48 0.848-5.44 1.264-8.848 1.264h-14.080v-36.96z" />
<glyph unicode="&#xe92b;" d="M627.056 748.4c0.816-0.112 1.536-0.32 2.16-0.608 0.656-0.304 1.248-0.704 1.84-1.232s1.248-1.248 2-2.16l55.36-70c-0.208 2.24-0.352 4.4-0.48 6.512-0.096 2.112-0.16 4.096-0.16 5.952v61.68h23.84v-116.544h-14.080c-2.080 0-3.84 0.32-5.28 0.96s-2.832 1.808-4.16 3.536l-54.96 69.44c0.16-2.032 0.288-4.016 0.384-5.968 0.112-1.936 0.16-3.76 0.16-5.472v-62.496h-23.824v116.56h14.24c1.184 0 2.176-0.064 2.96-0.16z" />
<glyph unicode="&#xe92c;" d="M785.696 651.52c3.728 0 7.040 0.336 9.92 0.976s5.6 1.488 8.16 2.56v17.664h-11.52c-1.696 0-3.040 0.448-4 1.36s-1.44 2.048-1.44 3.44v14.896h41.44v-49.216c-2.992-2.192-6.096-4.080-9.328-5.648-3.216-1.584-6.656-2.88-10.32-3.872-3.664-1.008-7.552-1.76-11.68-2.256-4.128-0.48-8.56-0.72-13.312-0.72-8.528 0-16.432 1.504-23.68 4.512s-13.536 7.168-18.832 12.48c-5.312 5.312-9.472 11.6-12.48 18.88s-4.512 15.184-4.512 23.712c0 8.704 1.44 16.688 4.336 23.968 2.88 7.28 7.008 13.568 12.336 18.848 5.376 5.28 11.84 9.376 19.44 12.32 7.616 2.944 16.096 4.4 25.488 4.4 4.864 0 9.424-0.4 13.664-1.2 4.288-0.8 8.224-1.888 11.808-3.28s6.896-3.040 9.872-4.96c3.008-1.92 5.664-4 8-6.256l-7.84-11.92c-0.752-1.104-1.632-2-2.672-2.64s-2.176-0.96-3.392-0.96c-1.616 0-3.264 0.528-4.976 1.6-2.128 1.28-4.16 2.384-6.032 3.328-1.904 0.944-3.84 1.68-5.808 2.288-1.968 0.576-4.064 1.008-6.24 1.28-2.192 0.272-4.64 0.384-7.36 0.384-5.056 0-9.632-0.896-13.68-2.672-4.048-1.792-7.504-4.32-10.352-7.568s-5.040-7.152-6.592-11.712-2.336-9.648-2.336-15.248c0-6.192 0.864-11.664 2.56-16.464 1.712-4.8 4.064-8.864 7.088-12.16 3.008-3.312 6.576-5.824 10.72-7.568 4.144-1.712 8.656-2.576 13.552-2.576z" />
<glyph unicode="&#xe92d;" d="M112 944h736v-992h-736v992z" />
<glyph unicode="&#xe92e;" d="M672 256c0-97.202-78.798-176-176-176s-176 78.798-176 176c0 97.202 78.798 176 176 176s176-78.798 176-176z" />
<glyph unicode="&#xe92f;" d="M496 432v-160l132.064-132.064c27.264 31.008 43.936 71.536 43.936 116.064 0 97.2-78.8 176-176 176z" />
<glyph unicode="&#xe930;" d="M320 258.4c0-43.904 16.672-83.904 43.936-114.464l132.064 130.256v157.808c-97.2 0-176-77.712-176-173.6z" />
<glyph unicode="&#xe931;" d="M496 64c106.032 0 192 85.968 192 192s-85.968 192-192 192-192-85.968-192-192 85.968-192 192-192zM512 415.184c80.848-8.032 144-76.224 144-159.184 0-34.432-11.008-66.256-29.488-92.336l-114.512 114.512v137.008zM605.904 139.92c-28.672-27.152-67.296-43.92-109.904-43.92s-81.232 16.768-109.904 43.92l109.904 109.904 109.904-109.904zM480 415.184v-137.008l-114.512-114.512c-18.496 26.080-29.488 57.904-29.488 92.336 0 82.976 63.152 151.152 144 159.184zM896 832h-32v96c0 17.664-14.336 32-32 32h-704c-17.664 0-32-14.336-32-32v-960c0-17.664 14.336-32 32-32h704c17.664 0 32 14.336 32 32v576h32c17.664 0 32 14.336 32 32v224c0 17.664-14.336 32-32 32zM832 832h-384c-17.664 0-32-14.336-32-32v-224c0-17.664 14.336-32 32-32h384v-576h-704v960h704v-96z" />
<glyph unicode="&#xe932;" d="M553.312 670.96v-38.96h-27.024v116.56h41.104c8.208 0 15.264-0.976 21.168-2.928 5.872-1.952 10.736-4.624 14.544-8.048 3.808-3.408 6.624-7.44 8.448-12.080 1.808-4.64 2.72-9.664 2.72-15.024 0-5.808-0.944-11.152-2.816-16-1.872-4.864-4.72-9.008-8.56-12.48s-8.704-6.176-14.592-8.128c-5.888-1.936-12.88-2.928-20.928-2.928h-14.064zM553.312 691.36h14.080c7.040 0 12.112 1.68 15.2 5.040s4.64 8.048 4.64 14.080c0 2.656-0.4 5.088-1.2 7.28s-2.016 4.064-3.648 5.648c-1.632 1.568-3.664 2.784-6.16 3.648-2.48 0.848-5.424 1.264-8.848 1.264h-14.080v-36.96z" />
<glyph unicode="&#xe933;" d="M655.392 670.96v-38.96h-27.040v116.56h41.12c8.224 0 15.264-0.976 21.152-2.928 5.904-1.952 10.752-4.624 14.56-8.048 3.808-3.408 6.624-7.44 8.432-12.080s2.72-9.664 2.72-15.024c0-5.808-0.944-11.152-2.8-16-1.856-4.864-4.72-9.008-8.544-12.48-3.84-3.472-8.72-6.176-14.608-8.128-5.888-1.936-12.864-2.928-20.928-2.928h-14.064zM655.392 691.36h14.080c7.024 0 12.112 1.68 15.2 5.040s4.64 8.048 4.64 14.080c0 2.656-0.4 5.088-1.2 7.28s-2.016 4.064-3.648 5.648c-1.632 1.568-3.68 2.784-6.16 3.648-2.48 0.848-5.44 1.264-8.848 1.264h-14.080v-36.96z" />
<glyph unicode="&#xe934;" d="M815.056 748.56v-21.44h-32.8v-95.12h-27.040v95.12h-32.784v21.44h92.624z" />
<glyph unicode="&#xe935;" d="M112 944h736v-992h-736v992z" />
<glyph unicode="&#xe936;" d="M258.032 172.672c-10.64-5.2-18.032-16.032-18.032-28.672 0-17.664 14.336-32 32-32s32 14.336 32 32c0 11.008-5.552 20.656-13.968 26.4 11.728 84.976 78.928 152.032 163.904 163.632 5.76-8.368 15.136-14.032 26.064-14.032s20.304 5.664 26.064 14.032c85.008-11.6 152.192-78.656 163.904-163.632-8.4-5.744-13.968-15.408-13.968-26.4 0-17.664 14.336-32 32-32s32 14.336 32 32c0 12.64-7.392 23.472-18.032 28.672-8.912 69.376-49.472 128.816-106.752 163.328h65.216c5.552-9.536 15.744-16 27.568-16 17.664 0 32 14.336 32 32s-14.336 32-32 32c-11.808 0-22.016-6.464-27.568-16h-152.88c-5.552 9.536-15.744 16-27.568 16s-22.016-6.464-27.568-16h-152.88c-5.552 9.536-15.744 16-27.568 16-17.664 0-32-14.336-32-32s14.336-32 32-32c11.808 0 22.016 6.464 27.568 16h65.216c-57.248-34.512-97.824-93.952-106.72-163.328zM896 832h-32v96c0 17.664-14.336 32-32 32h-704c-17.664 0-32-14.336-32-32v-960c0-17.664 14.336-32 32-32h704c17.664 0 32 14.336 32 32v576h32c17.664 0 32 14.336 32 32v224c0 17.664-14.336 32-32 32zM832 832h-384c-17.664 0-32-14.336-32-32v-224c0-17.664 14.336-32 32-32h384v-576h-704v960h704v-96z" />
<glyph unicode="&#xe937;" d="M549.552 670.96v-38.96h-27.040v116.56h41.12c8.224 0 15.264-0.976 21.152-2.928 5.904-1.952 10.752-4.624 14.56-8.048 3.808-3.408 6.624-7.44 8.432-12.080s2.72-9.664 2.72-15.024c0-5.808-0.944-11.152-2.8-16-1.856-4.864-4.72-9.008-8.544-12.48-3.84-3.472-8.72-6.176-14.608-8.128-5.888-1.936-12.864-2.928-20.928-2.928h-14.064zM549.552 691.36h14.080c7.024 0 12.112 1.68 15.2 5.040s4.64 8.048 4.64 14.080c0 2.656-0.4 5.088-1.2 7.28s-2.016 4.064-3.648 5.648c-1.632 1.568-3.68 2.784-6.16 3.648-2.48 0.848-5.44 1.264-8.848 1.264h-14.080v-36.96z" />
<glyph unicode="&#xe938;" d="M689.552 724.88c-0.8-1.28-1.648-2.24-2.512-2.88-0.896-0.64-2.032-0.96-3.408-0.96-1.216 0-2.544 0.368-3.968 1.152-1.408 0.768-3.008 1.648-4.784 2.592-1.792 0.976-3.84 1.824-6.128 2.608-2.304 0.768-4.912 1.152-7.84 1.152-5.056 0-8.848-1.072-11.312-3.248-2.496-2.16-3.712-5.072-3.712-8.752 0-2.336 0.736-4.304 2.224-5.84 1.504-1.552 3.472-2.88 5.888-4s5.2-2.144 8.336-3.072c3.104-0.944 6.304-1.968 9.568-3.12 3.248-1.136 6.432-2.48 9.552-4.032s5.888-3.536 8.336-5.92c2.416-2.4 4.368-5.328 5.872-8.768s2.256-7.584 2.256-12.432c0-5.392-0.944-10.416-2.816-15.12-1.872-4.688-4.56-8.784-8.128-12.288-3.536-3.488-7.904-6.24-13.104-8.24s-11.104-3.008-17.728-3.008c-3.632 0-7.312 0.368-11.056 1.12-3.76 0.752-7.408 1.792-10.944 3.152-3.504 1.36-6.816 2.976-9.904 4.848-3.088 1.856-5.776 3.936-8.096 6.24l8 12.64c0.592 0.976 1.424 1.728 2.496 2.336 1.056 0.576 2.208 0.88 3.44 0.88 1.6 0 3.2-0.512 4.848-1.52 1.632-1.008 3.456-2.144 5.504-3.36 2.064-1.232 4.416-2.352 7.088-3.36 2.656-1.008 5.808-1.536 9.44-1.536 4.912 0 8.72 1.072 11.44 3.248 2.72 2.16 4.080 5.584 4.080 10.288 0 2.72-0.736 4.928-2.24 6.624-1.504 1.712-3.456 3.12-5.872 4.256-2.432 1.12-5.184 2.112-8.288 2.96-3.088 0.864-6.288 1.792-9.536 2.848s-6.416 2.336-9.52 3.84-5.856 3.52-8.288 6-4.384 5.568-5.872 9.28c-1.504 3.696-2.24 8.288-2.24 13.712 0 4.368 0.88 8.64 2.624 12.8 1.76 4.16 4.336 7.856 7.76 11.12 3.424 3.248 7.616 5.84 12.56 7.792 4.96 1.936 10.64 2.928 17.040 2.928 3.568 0 7.040-0.288 10.432-0.848 3.376-0.56 6.592-1.392 9.632-2.48s5.888-2.384 8.528-3.92c2.64-1.52 5.008-3.232 7.072-5.152l-6.72-12.56z" />
<glyph unicode="&#xe939;" d="M817.056 690.32c0-8.416-1.456-16.192-4.352-23.312s-7.008-13.28-12.288-18.48-11.648-9.248-19.072-12.16-15.68-4.352-24.752-4.352h-45.28v116.56h45.28c9.056 0 17.312-1.472 24.752-4.4s13.792-6.992 19.072-12.16 9.376-11.312 12.288-18.432 4.352-14.896 4.352-23.264zM789.376 690.32c0 5.76-0.752 10.976-2.24 15.616s-3.648 8.576-6.432 11.792c-2.8 3.232-6.24 5.696-10.288 7.44s-8.672 2.608-13.824 2.608h-18.096v-74.976h18.096c5.152 0 9.776 0.88 13.824 2.608 4.048 1.712 7.488 4.208 10.288 7.44 2.8 3.216 4.96 7.152 6.432 11.792s2.24 9.856 2.24 15.68z" />
<glyph unicode="&#xe93a;" d="M112 944h736v-992h-736v992z" />
<glyph unicode="&#xe93b;" d="M400 336h-96v-160h96l144-80v320z" />
<glyph unicode="&#xe93c;" d="M614.496 221.216c-6.4-4.592-8.496-13.408-4.576-20.4l0.672-1.184c4.288-7.616 13.904-9.968 20.88-5.008 27.952 20 41.536 41.68 40.4 64.592-1.376 27.952-24.32 47.84-40.288 58.368-7.552 4.992-17.584 1.936-21.28-6.528l-0.592-1.376c-3.008-6.912-0.72-15.008 5.408-19.104 11.344-7.584 25.472-19.952 26.080-33.008 0.512-10.848-8.864-23.504-26.704-36.352zM896 832h-32v96c0 17.664-14.336 32-32 32h-704c-17.664 0-32-14.336-32-32v-960c0-17.664 14.336-32 32-32h704c17.664 0 32 14.336 32 32v576h32c17.664 0 32 14.336 32 32v224c0 17.664-14.336 32-32 32zM832 832h-384c-17.664 0-32-14.336-32-32v-224c0-17.664 14.336-32 32-32h384v-576h-704v960h704v-96zM304 160h92.24l140-78.128c0.368-0.224 0.816-0.224 1.184-0.384s0.784-0.256 1.168-0.384c7.2-2.752 15.52-0.256 19.52 6.624 1.536 2.624 1.92 5.456 1.872 8.272 0 0 0 0.016 0 0.032v318.672c0.336 3.216-0.032 6.544-1.776 9.584-4 6.896-12.32 9.376-19.568 6.656-0.4-0.16-0.832-0.256-1.232-0.4-0.352-0.192-0.784-0.192-1.136-0.384l-140.208-78.16h-92.064c-8.848 0-16-7.152-16-16v-160c0-8.848 7.152-16 16-16zM416 326.512l112 62.384v-265.872l-112 62.464v141.024zM320 320h64v-128h-64v128z" />
<glyph unicode="&#xe93d;" d="M463.856 745.888h22.72c2.336 0 4.304-0.528 5.872-1.616 1.568-1.056 2.608-2.464 3.072-4.24l16-60.8c0.544-1.968 1.072-4.080 1.6-6.336 0.528-2.24 0.944-4.576 1.2-7.024 0.528 2.496 1.12 4.864 1.76 7.072s1.248 4.32 1.84 6.288l18.864 60.8c0.496 1.504 1.52 2.848 3.088 4.048 1.568 1.184 3.472 1.792 5.712 1.792h8c2.336 0 4.288-0.512 5.792-1.568s2.576-2.464 3.168-4.288l18.72-60.8c0.576-1.872 1.184-3.856 1.824-5.968 0.64-2.096 1.2-4.352 1.664-6.752 0.432 2.336 0.88 4.576 1.328 6.72 0.448 2.128 0.928 4.128 1.392 6l16 60.8c0.432 1.552 1.456 2.912 3.056 4.080s3.504 1.76 5.744 1.76h21.28l-36-116.56h-24.48l-21.92 72.24c-0.368 1.12-0.752 2.352-1.152 3.68s-0.784 2.752-1.152 4.24c-0.368-1.488-0.768-2.912-1.152-4.24-0.4-1.328-0.8-2.56-1.152-3.68l-22.256-72.24h-24.48l-35.952 116.592z" />
<glyph unicode="&#xe93e;" d="M741.312 629.328h-20.976c-2.336 0-4.288 0.544-5.792 1.648s-2.576 2.48-3.168 4.208l-6.88 20.32h-44.32l-6.88-20.32c-0.528-1.504-1.584-2.848-3.12-4.048s-3.44-1.792-5.68-1.792h-21.12l45.12 116.56h27.68l45.136-116.576zM666.432 673.888h31.824l-10.72 31.92c-0.704 2.016-1.52 4.4-2.432 7.152-0.944 2.752-1.856 5.712-2.768 8.928-0.848-3.248-1.728-6.272-2.64-9.040s-1.76-5.168-2.544-7.2l-10.72-31.76z" />
<glyph unicode="&#xe93f;" d="M725.152 745.888h21.744c2.336 0 4.272-0.528 5.76-1.616 1.488-1.056 2.544-2.464 3.2-4.24l22.56-62.4c1.008-2.72 2.032-5.664 3.056-8.88 1.040-3.2 2.032-6.56 2.944-10.080 0.736 3.52 1.6 6.88 2.592 10.080s1.968 6.16 2.912 8.88l22.4 62.4c0.528 1.504 1.584 2.848 3.12 4.048 1.552 1.184 3.44 1.792 5.68 1.792h21.904l-46.72-116.56h-24.464l-46.688 116.576z" />
<glyph unicode="&#xe940;" d="M112 944h736v-992h-736v992z" />
<glyph unicode="&#xe941;" d="M256 80h64v160h-64v-160zM512 304v-224h64v224h-64z" />
<glyph unicode="&#xe942;" d="M384 80h64v352h-64v-352zM640 240v-160h64v160h-64z" />
<glyph unicode="&#xe943;" d="M656 64h32c17.664 0 32 14.336 32 32v128c0 17.664-14.336 32-32 32h-32c-17.664 0-32-14.336-32-32v-128c0-17.664 14.336-32 32-32zM656 224h32v-128h-32v128zM272 64h32c17.664 0 32 14.336 32 32v128c0 17.664-14.336 32-32 32h-32c-17.664 0-32-14.336-32-32v-128c0-17.664 14.336-32 32-32zM272 224h32v-128h-32v128zM400 64h32c17.664 0 32 14.336 32 32v320c0 17.664-14.336 32-32 32h-32c-17.664 0-32-14.336-32-32v-320c0-17.664 14.336-32 32-32zM400 416h32v-320h-32v320zM528 64h32c17.664 0 32 14.336 32 32v192c0 17.664-14.336 32-32 32h-32c-17.664 0-32-14.336-32-32v-192c0-17.664 14.336-32 32-32zM528 288h32v-192h-32v192zM896 832h-32v96c0 17.664-14.336 32-32 32h-704c-17.664 0-32-14.336-32-32v-960c0-17.664 14.336-32 32-32h704c17.664 0 32 14.336 32 32v576h32c17.664 0 32 14.336 32 32v224c0 17.664-14.336 32-32 32zM832 832h-384c-17.664 0-32-14.336-32-32v-224c0-17.664 14.336-32 32-32h384v-576h-704v960h704v-96z" />
<glyph unicode="&#xe944;" d="M563.152 691.92l-36.096 56.64h27.040c1.76 0 3.040-0.24 3.872-0.688s1.568-1.2 2.208-2.288l23.2-39.28c0.272 0.704 0.576 1.376 0.928 2 0.336 0.64 0.72 1.312 1.152 2l20.32 34.896c1.344 2.24 3.152 3.36 5.44 3.36h25.936l-36.56-55.44 37.344-61.12h-27.024c-1.744 0-3.184 0.416-4.288 1.28-1.088 0.848-1.952 1.856-2.592 3.024l-23.36 40.816c-0.416-1.168-0.928-2.192-1.456-3.040l-21.744-37.76c-0.64-1.104-1.504-2.112-2.56-3.008-1.056-0.88-2.4-1.312-4-1.312h-25.28l37.52 59.92z" />
<glyph unicode="&#xe945;" d="M675.392 653.6h43.2v-21.6h-70.256v116.56h27.040v-94.96z" />
<glyph unicode="&#xe946;" d="M796.336 724.88c-0.8-1.28-1.632-2.24-2.512-2.88s-2.016-0.96-3.392-0.96c-1.232 0-2.56 0.368-3.968 1.152-1.408 0.768-3.008 1.648-4.8 2.592-1.792 0.976-3.824 1.824-6.128 2.608-2.304 0.768-4.912 1.152-7.824 1.152-5.072 0-8.848-1.072-11.328-3.248-2.48-2.16-3.712-5.072-3.712-8.752 0-2.336 0.736-4.304 2.24-5.84s3.456-2.88 5.872-4c2.432-1.12 5.216-2.144 8.336-3.072s6.304-1.968 9.568-3.12c3.248-1.136 6.432-2.48 9.552-4.032s5.904-3.536 8.336-5.92c2.416-2.4 4.384-5.328 5.888-8.768 1.488-3.44 2.24-7.584 2.24-12.432 0-5.392-0.944-10.416-2.8-15.12-1.872-4.688-4.576-8.784-8.128-12.288-3.552-3.488-7.92-6.24-13.12-8.24-5.184-2-11.088-3.008-17.712-3.008-3.632 0-7.312 0.368-11.072 1.12s-7.392 1.792-10.928 3.152c-3.52 1.36-6.832 2.976-9.904 4.848-3.088 1.856-5.792 3.936-8.096 6.24l8 12.64c0.592 0.976 1.408 1.728 2.48 2.336 1.056 0.576 2.208 0.88 3.44 0.88 1.616 0 3.2-0.512 4.848-1.52 1.632-1.008 3.456-2.144 5.52-3.36 2.064-1.232 4.4-2.352 7.072-3.36s5.808-1.536 9.456-1.536c4.912 0 8.72 1.072 11.44 3.248 2.72 2.16 4.064 5.584 4.064 10.288 0 2.72-0.736 4.928-2.224 6.624-1.504 1.712-3.472 3.12-5.888 4.256s-5.184 2.112-8.288 2.96c-3.088 0.864-6.272 1.792-9.52 2.848s-6.432 2.336-9.536 3.84-5.84 3.52-8.288 6c-2.416 2.48-4.368 5.568-5.872 9.28-1.504 3.696-2.24 8.288-2.24 13.712 0 4.368 0.88 8.64 2.64 12.8 1.744 4.16 4.336 7.856 7.744 11.12 3.424 3.248 7.616 5.84 12.56 7.792 4.976 1.936 10.656 2.928 17.040 2.928 3.584 0 7.040-0.288 10.432-0.848s6.608-1.392 9.648-2.48 5.872-2.384 8.528-3.92c2.624-1.52 5.008-3.232 7.056-5.152l-6.72-12.56z" />
<glyph unicode="&#xe947;" d="M656 720v224h-512v-992h736v768z" />
<glyph unicode="&#xe948;" d="M656 944v-224h224z" />
<glyph unicode="&#xe949;" d="M895.904 720.176c-0.144 3.792-1.568 7.584-4.464 10.48l-224.784 224.784c-2.864 2.864-6.576 4.272-10.336 4.432-0.096 0.032-0.32 0.128-0.32 0.128h-496c-17.664 0-32-14.336-32-32v-960c0-17.664 14.336-32 32-32h704c17.664 0 32 14.336 32 32v752c0 0-0.080 0.144-0.096 0.176zM672 905.904l169.904-169.904c-66.272 0-169.904 0-169.904 0s0 103.616 0 169.904zM864-32h-336v384h16c17.664 0 32 14.336 32 32v128c0 17.664-14.336 32-32 32v32h-32v-32h-32c-17.664 0-32-14.336-32-32v-128c0-17.664 14.336-32 32-32h16v-384h-336v960h320v-32h32v32h128v-224h224v-736zM544 448v-64h-64v64h64zM480 480v32h64v-32h-64zM544 864v32h-32v-32h32zM480 832h32v32h-32v-32zM544 800v32h-32v-32h32zM480 768h32v32h-32v-32zM544 736v32h-32v-32h32zM480 704h32v32h-32v-32zM544 672v32h-32v-32h32zM480 640h32v32h-32v-32zM544 608v32h-32v-32h32zM480 608v-32h32v32h-32z" />
</font>
</defs>
</svg>
