<?xml version="1.0" encoding="utf-8"?>
<!-- Generator: Adobe Illustrator 16.0.0, SVG Export Plug-In . SVG Version: 6.00 Build 0)  -->
<!DOCTYPE svg PUBLIC "-//W3C//DTD SVG 1.1//EN" "http://www.w3.org/Graphics/SVG/1.1/DTD/svg11.dtd">
<svg version="1.1" id="Layer_1" xmlns="http://www.w3.org/2000/svg" xmlns:xlink="http://www.w3.org/1999/xlink" x="0px" y="0px"
	 width="64px" height="64px" viewBox="0 0 64 64" enable-background="new 0 0 64 64" xml:space="preserve">
<g id="Rectangle_29">
	<g>
		<rect x="7" y="1" fill="#EDF2F8" width="46" height="62"/>
	</g>
</g>
<g id="icon_4_">
	<g>
		<path fill="#8592A5" d="M44,34H16v2h28V34z M44,40H16v2h28V40z M44,46H16v2h28V46z M56,8h-2V2c0-1.104-0.896-2-2-2H8
			C6.896,0,6,0.896,6,2v60c0,1.104,0.896,2,2,2h44c1.104,0,2-0.896,2-2V26h2c1.104,0,2-0.896,2-2V10C58,8.896,57.104,8,56,8z M52,8
			H28c-1.104,0-2,0.896-2,2v14c0,1.104,0.896,2,2,2h24v36H8V2h44V8z M31,52H16v2h15V52z"/>
	</g>
</g>
</svg>
